<svg width="60" height="60" viewBox="0 0 60 60" fill="none" xmlns="http://www.w3.org/2000/svg">
<path d="M29.5934 59.8246C29.5342 59.7248 29.2796 59.0033 29.0276 58.2211C27.4308 53.2643 24.4665 48.2449 19.5025 42.0924C17.6375 39.7809 15.8821 37.734 11.1354 32.336C5.63924 26.0859 4.06491 24.0836 2.47516 21.322C1.53638 19.6912 0.563512 17.2098 0.243362 15.6296C-0.0766054 14.0503 -0.0818213 11.4701 0.232234 10.1265C1.50971 4.66149 6.69871 0.538491 12.9035 0.0583883C20.0116 -0.491603 26.0579 2.86764 29.2348 9.13181L29.9442 10.5306L30.4781 9.42556C31.2714 7.78359 32.0355 6.67306 33.3251 5.28745C36.6085 1.75963 40.5161 0.0315351 45.2236 0.0254895C47.3322 0.0227856 48.5405 0.186512 50.3373 0.718432C53.0247 1.51397 55.0477 2.7533 56.8493 4.70786C61.5446 9.8015 60.9886 16.7408 55.2045 25.2397C53.8552 27.2222 51.4207 30.1555 48.0727 33.8328C44.2173 38.0674 42.3335 40.2195 40.4048 42.5928C35.7818 48.2815 32.6726 53.4505 30.9624 58.2907C30.7015 59.0291 30.4282 59.7171 30.355 59.8196C30.1851 60.0578 29.7335 60.0608 29.5934 59.8246Z" fill="#FF0000"/>
</svg>
